M48
; DRILL file {KiCad 8.0.7} date 2025-10-16T17:37:57-0700
; FORMAT={-:-/ absolute / inch / decimal}
; #@! TF.CreationDate,2025-10-16T17:37:57-07:00
; #@! TF.GenerationSoftware,Kicad,Pcbnew,8.0.7
; #@! TF.FileFunction,Plated,1,2,PTH
FMAT,2
INCH
; #@! TA.AperFunction,Plated,PTH,ViaDrill
T1C0.0118
; #@! TA.AperFunction,Plated,PTH,ComponentDrill
T2C0.0315
; #@! TA.AperFunction,Plated,PTH,ComponentDrill
T3C0.0394
; #@! TA.AperFunction,Plated,PTH,ComponentDrill
T4C0.0591
; #@! TA.AperFunction,Plated,PTH,ViaDrill
T5C0.0709
; #@! TA.AperFunction,Plated,PTH,ComponentDrill
T6C0.1181
%
G90
G05
T1
X7.4803Y-3.1496
T2
X6.0311Y-3.2087
X6.0508Y-2.9528
X6.0508Y-3.4449
X6.0508Y-3.7402
X6.3311Y-3.2087
X6.3508Y-2.9528
X6.3508Y-3.4449
X6.3508Y-3.7402
X6.5217Y-2.9921
X6.5217Y-3.1791
X6.5217Y-3.4843
X6.5217Y-3.6713
X7.0217Y-2.9921
X7.0217Y-3.1791
X7.0217Y-3.4843
X7.0217Y-3.6713
X7.4803Y-3.1496
X7.4803Y-3.5433
T3
X6.7126Y-2.3425
X6.7126Y-2.5425
X6.7323Y-4.0732
X6.7323Y-4.2732
T4
X7.4252Y-2.6378
X7.4646Y-3.9961
X7.6398Y-2.6378
X7.6791Y-3.9961
X7.8543Y-2.6378
X7.8937Y-3.9961
T5
X6.4961Y-3.3465
X6.6929Y-3.1496
X6.8898Y-3.9094
X7.6772Y-2.9528
T6
X5.689Y-3.0906
X5.689Y-3.6024
X8.2283Y-3.1496
X8.248Y-3.5433
M30
