%TF.GenerationSoftware,KiCad,Pcbnew,8.0.7*%
%TF.CreationDate,2025-10-16T17:38:00-07:00*%
%TF.ProjectId,ZVS Driver,5a565320-4472-4697-9665-722e6b696361,rev?*%
%TF.SameCoordinates,Original*%
%TF.FileFunction,Copper,L1,Top*%
%TF.FilePolarity,Positive*%
%FSLAX46Y46*%
G04 Gerber Fmt 4.6, Leading zero omitted, Abs format (unit mm)*
G04 Created by KiCad (PCBNEW 8.0.7) date 2025-10-16 17:38:00*
%MOMM*%
%LPD*%
G01*
G04 APERTURE LIST*
%TA.AperFunction,ComponentPad*%
%ADD10C,1.600000*%
%TD*%
%TA.AperFunction,ComponentPad*%
%ADD11O,1.600000X1.600000*%
%TD*%
%TA.AperFunction,ComponentPad*%
%ADD12R,1.600000X1.600000*%
%TD*%
%TA.AperFunction,ComponentPad*%
%ADD13R,2.500000X4.500000*%
%TD*%
%TA.AperFunction,ComponentPad*%
%ADD14O,2.500000X4.500000*%
%TD*%
%TA.AperFunction,ComponentPad*%
%ADD15C,2.000000*%
%TD*%
%TA.AperFunction,ComponentPad*%
%ADD16C,6.000000*%
%TD*%
%TA.AperFunction,ViaPad*%
%ADD17C,0.600000*%
%TD*%
%TA.AperFunction,ViaPad*%
%ADD18C,2.000000*%
%TD*%
%TA.AperFunction,Conductor*%
%ADD19C,2.000000*%
%TD*%
G04 APERTURE END LIST*
D10*
%TO.P,R4,1*%
%TO.N,Net-(D1-A)*%
X165650000Y-93250000D03*
D11*
%TO.P,R4,2*%
%TO.N,GND*%
X178350000Y-93250000D03*
%TD*%
D12*
%TO.P,D2,1,K*%
%TO.N,Net-(D1-A)*%
X153190000Y-81500000D03*
D11*
%TO.P,D2,2,A*%
%TO.N,GND*%
X160810000Y-81500000D03*
%TD*%
D12*
%TO.P,D1,1,K*%
%TO.N,Net-(D1-K)*%
X153690000Y-75000000D03*
D11*
%TO.P,D1,2,A*%
%TO.N,Net-(D1-A)*%
X161310000Y-75000000D03*
%TD*%
D10*
%TO.P,R1,1*%
%TO.N,VCC*%
X165650000Y-76000000D03*
D11*
%TO.P,R1,2*%
%TO.N,Net-(D3-K)*%
X178350000Y-76000000D03*
%TD*%
D13*
%TO.P,Q1,1,D*%
%TO.N,Net-(D1-K)*%
X188600000Y-67000000D03*
D14*
%TO.P,Q1,2,G*%
%TO.N,Net-(D3-K)*%
X194050000Y-67000000D03*
%TO.P,Q1,3,S*%
%TO.N,GND*%
X199500000Y-67000000D03*
%TD*%
D15*
%TO.P,L2,1,1*%
%TO.N,Net-(D4-K)*%
X171000000Y-103460000D03*
%TO.P,L2,2,2*%
%TO.N,VCC*%
X171000000Y-108540000D03*
%TD*%
D10*
%TO.P,R2,1*%
%TO.N,VCC*%
X165650000Y-80750000D03*
D11*
%TO.P,R2,2*%
%TO.N,Net-(D1-A)*%
X178350000Y-80750000D03*
%TD*%
D12*
%TO.P,D3,1,K*%
%TO.N,Net-(D3-K)*%
X153690000Y-87500000D03*
D11*
%TO.P,D3,2,A*%
%TO.N,GND*%
X161310000Y-87500000D03*
%TD*%
D16*
%TO.P,J3,1,Pin_1*%
%TO.N,VCC*%
X144500000Y-78500000D03*
%TD*%
D12*
%TO.P,D4,1,K*%
%TO.N,Net-(D4-K)*%
X153690000Y-95000000D03*
D11*
%TO.P,D4,2,A*%
%TO.N,Net-(D3-K)*%
X161310000Y-95000000D03*
%TD*%
D10*
%TO.P,C1,1*%
%TO.N,Net-(D1-K)*%
X190000000Y-90000000D03*
%TO.P,C1,2*%
%TO.N,Net-(D4-K)*%
X190000000Y-80000000D03*
%TD*%
%TO.P,R3,1*%
%TO.N,GND*%
X165650000Y-88500000D03*
D11*
%TO.P,R3,2*%
%TO.N,Net-(D3-K)*%
X178350000Y-88500000D03*
%TD*%
D16*
%TO.P,J2,1,Pin_1*%
%TO.N,Net-(D1-K)*%
X209500000Y-90000000D03*
%TD*%
D15*
%TO.P,L1,1,1*%
%TO.N,VCC*%
X170500000Y-59500000D03*
%TO.P,L1,2,2*%
%TO.N,Net-(D1-K)*%
X170500000Y-64580000D03*
%TD*%
D16*
%TO.P,J1,1,Pin_1*%
%TO.N,GND*%
X144500000Y-91500000D03*
%TD*%
%TO.P,J4,1,Pin_1*%
%TO.N,Net-(D4-K)*%
X209000000Y-80000000D03*
%TD*%
D13*
%TO.P,Q2,1,D*%
%TO.N,Net-(D4-K)*%
X189600000Y-101500000D03*
D14*
%TO.P,Q2,2,G*%
%TO.N,Net-(D1-A)*%
X195050000Y-101500000D03*
%TO.P,Q2,3,S*%
%TO.N,GND*%
X200500000Y-101500000D03*
%TD*%
D17*
%TO.N,Net-(D4-K)*%
X190000000Y-80000000D03*
D18*
%TO.N,Net-(D1-K)*%
X195000000Y-75000000D03*
%TO.N,GND*%
X175000000Y-99300000D03*
%TO.N,Net-(D3-K)*%
X165000000Y-85000000D03*
X170000000Y-80000000D03*
%TD*%
D19*
%TO.N,Net-(D4-K)*%
X172960000Y-101500000D02*
X171000000Y-103460000D01*
X171000000Y-103460000D02*
X162150000Y-103460000D01*
X189600000Y-101500000D02*
X172960000Y-101500000D01*
X162150000Y-103460000D02*
X153690000Y-95000000D01*
%TO.N,Net-(D1-K)*%
X195000000Y-75000000D02*
X195000000Y-85000000D01*
X153690000Y-75000000D02*
X164110000Y-64580000D01*
X186180000Y-64580000D02*
X188600000Y-67000000D01*
X170500000Y-64580000D02*
X186180000Y-64580000D01*
X195000000Y-85000000D02*
X190000000Y-90000000D01*
X164110000Y-64580000D02*
X170500000Y-64580000D01*
%TO.N,Net-(D1-A)*%
X176150000Y-82950000D02*
X176150000Y-94161270D01*
X178350000Y-79250000D02*
X178350000Y-80750000D01*
X162310000Y-74000000D02*
X173100000Y-74000000D01*
X161310000Y-75000000D02*
X159690000Y-75000000D01*
X173100000Y-74000000D02*
X178350000Y-79250000D01*
X177438730Y-95450000D02*
X189000000Y-95450000D01*
X159690000Y-75000000D02*
X153190000Y-81500000D01*
X178350000Y-80750000D02*
X176150000Y-82950000D01*
X161310000Y-75000000D02*
X162310000Y-74000000D01*
X176150000Y-94161270D02*
X177438730Y-95450000D01*
X189000000Y-95450000D02*
X195050000Y-101500000D01*
%TO.N,GND*%
X192250000Y-93250000D02*
X200500000Y-101500000D01*
X144500000Y-91500000D02*
X157310000Y-91500000D01*
X167650000Y-90500000D02*
X167650000Y-92650000D01*
X167650000Y-92650000D02*
X174300000Y-99300000D01*
X165650000Y-88500000D02*
X167650000Y-90500000D01*
X199500000Y-67000000D02*
X199500000Y-100500000D01*
X161310000Y-87500000D02*
X164650000Y-87500000D01*
X157310000Y-91500000D02*
X161310000Y-87500000D01*
X174300000Y-99300000D02*
X175000000Y-99300000D01*
X160810000Y-87000000D02*
X161310000Y-87500000D01*
X160810000Y-81500000D02*
X160810000Y-87000000D01*
X164650000Y-87500000D02*
X165650000Y-88500000D01*
X178350000Y-93250000D02*
X192250000Y-93250000D01*
X199500000Y-100500000D02*
X200500000Y-101500000D01*
%TO.N,Net-(D3-K)*%
X178350000Y-76000000D02*
X185050000Y-76000000D01*
X185050000Y-76000000D02*
X194050000Y-67000000D01*
X165000000Y-85000000D02*
X170000000Y-80000000D01*
%TO.N,VCC*%
X144500000Y-78500000D02*
X163500000Y-59500000D01*
X163500000Y-59500000D02*
X170500000Y-59500000D01*
%TD*%
M02*
