%TF.GenerationSoftware,KiCad,Pcbnew,8.0.7*%
%TF.CreationDate,2025-10-16T17:38:00-07:00*%
%TF.ProjectId,ZVS Driver,5a565320-4472-4697-9665-722e6b696361,rev?*%
%TF.SameCoordinates,Original*%
%TF.FileFunction,Legend,Top*%
%TF.FilePolarity,Positive*%
%FSLAX46Y46*%
G04 Gerber Fmt 4.6, Leading zero omitted, Abs format (unit mm)*
G04 Created by KiCad (PCBNEW 8.0.7) date 2025-10-16 17:38:00*
%MOMM*%
%LPD*%
G01*
G04 APERTURE LIST*
%ADD10C,0.150000*%
%ADD11C,0.120000*%
G04 APERTURE END LIST*
D10*
X171833333Y-90984819D02*
X171500000Y-90508628D01*
X171261905Y-90984819D02*
X171261905Y-89984819D01*
X171261905Y-89984819D02*
X171642857Y-89984819D01*
X171642857Y-89984819D02*
X171738095Y-90032438D01*
X171738095Y-90032438D02*
X171785714Y-90080057D01*
X171785714Y-90080057D02*
X171833333Y-90175295D01*
X171833333Y-90175295D02*
X171833333Y-90318152D01*
X171833333Y-90318152D02*
X171785714Y-90413390D01*
X171785714Y-90413390D02*
X171738095Y-90461009D01*
X171738095Y-90461009D02*
X171642857Y-90508628D01*
X171642857Y-90508628D02*
X171261905Y-90508628D01*
X172690476Y-90318152D02*
X172690476Y-90984819D01*
X172452381Y-89937200D02*
X172214286Y-90651485D01*
X172214286Y-90651485D02*
X172833333Y-90651485D01*
X156261905Y-79834819D02*
X156261905Y-78834819D01*
X156261905Y-78834819D02*
X156500000Y-78834819D01*
X156500000Y-78834819D02*
X156642857Y-78882438D01*
X156642857Y-78882438D02*
X156738095Y-78977676D01*
X156738095Y-78977676D02*
X156785714Y-79072914D01*
X156785714Y-79072914D02*
X156833333Y-79263390D01*
X156833333Y-79263390D02*
X156833333Y-79406247D01*
X156833333Y-79406247D02*
X156785714Y-79596723D01*
X156785714Y-79596723D02*
X156738095Y-79691961D01*
X156738095Y-79691961D02*
X156642857Y-79787200D01*
X156642857Y-79787200D02*
X156500000Y-79834819D01*
X156500000Y-79834819D02*
X156261905Y-79834819D01*
X157214286Y-78930057D02*
X157261905Y-78882438D01*
X157261905Y-78882438D02*
X157357143Y-78834819D01*
X157357143Y-78834819D02*
X157595238Y-78834819D01*
X157595238Y-78834819D02*
X157690476Y-78882438D01*
X157690476Y-78882438D02*
X157738095Y-78930057D01*
X157738095Y-78930057D02*
X157785714Y-79025295D01*
X157785714Y-79025295D02*
X157785714Y-79120533D01*
X157785714Y-79120533D02*
X157738095Y-79263390D01*
X157738095Y-79263390D02*
X157166667Y-79834819D01*
X157166667Y-79834819D02*
X157785714Y-79834819D01*
X152928095Y-80154819D02*
X152928095Y-79154819D01*
X153499523Y-80154819D02*
X153070952Y-79583390D01*
X153499523Y-79154819D02*
X152928095Y-79726247D01*
X212953695Y-55622819D02*
X212953695Y-54622819D01*
X212953695Y-55099009D02*
X213525123Y-55099009D01*
X213525123Y-55622819D02*
X213525123Y-54622819D01*
X213953695Y-54718057D02*
X214001314Y-54670438D01*
X214001314Y-54670438D02*
X214096552Y-54622819D01*
X214096552Y-54622819D02*
X214334647Y-54622819D01*
X214334647Y-54622819D02*
X214429885Y-54670438D01*
X214429885Y-54670438D02*
X214477504Y-54718057D01*
X214477504Y-54718057D02*
X214525123Y-54813295D01*
X214525123Y-54813295D02*
X214525123Y-54908533D01*
X214525123Y-54908533D02*
X214477504Y-55051390D01*
X214477504Y-55051390D02*
X213906076Y-55622819D01*
X213906076Y-55622819D02*
X214525123Y-55622819D01*
X156761905Y-73334819D02*
X156761905Y-72334819D01*
X156761905Y-72334819D02*
X157000000Y-72334819D01*
X157000000Y-72334819D02*
X157142857Y-72382438D01*
X157142857Y-72382438D02*
X157238095Y-72477676D01*
X157238095Y-72477676D02*
X157285714Y-72572914D01*
X157285714Y-72572914D02*
X157333333Y-72763390D01*
X157333333Y-72763390D02*
X157333333Y-72906247D01*
X157333333Y-72906247D02*
X157285714Y-73096723D01*
X157285714Y-73096723D02*
X157238095Y-73191961D01*
X157238095Y-73191961D02*
X157142857Y-73287200D01*
X157142857Y-73287200D02*
X157000000Y-73334819D01*
X157000000Y-73334819D02*
X156761905Y-73334819D01*
X158285714Y-73334819D02*
X157714286Y-73334819D01*
X158000000Y-73334819D02*
X158000000Y-72334819D01*
X158000000Y-72334819D02*
X157904762Y-72477676D01*
X157904762Y-72477676D02*
X157809524Y-72572914D01*
X157809524Y-72572914D02*
X157714286Y-72620533D01*
X153428095Y-73654819D02*
X153428095Y-72654819D01*
X153999523Y-73654819D02*
X153570952Y-73083390D01*
X153999523Y-72654819D02*
X153428095Y-73226247D01*
X171833333Y-73734819D02*
X171500000Y-73258628D01*
X171261905Y-73734819D02*
X171261905Y-72734819D01*
X171261905Y-72734819D02*
X171642857Y-72734819D01*
X171642857Y-72734819D02*
X171738095Y-72782438D01*
X171738095Y-72782438D02*
X171785714Y-72830057D01*
X171785714Y-72830057D02*
X171833333Y-72925295D01*
X171833333Y-72925295D02*
X171833333Y-73068152D01*
X171833333Y-73068152D02*
X171785714Y-73163390D01*
X171785714Y-73163390D02*
X171738095Y-73211009D01*
X171738095Y-73211009D02*
X171642857Y-73258628D01*
X171642857Y-73258628D02*
X171261905Y-73258628D01*
X172785714Y-73734819D02*
X172214286Y-73734819D01*
X172500000Y-73734819D02*
X172500000Y-72734819D01*
X172500000Y-72734819D02*
X172404762Y-72877676D01*
X172404762Y-72877676D02*
X172309524Y-72972914D01*
X172309524Y-72972914D02*
X172214286Y-73020533D01*
X193954761Y-64100057D02*
X193859523Y-64052438D01*
X193859523Y-64052438D02*
X193764285Y-63957200D01*
X193764285Y-63957200D02*
X193621428Y-63814342D01*
X193621428Y-63814342D02*
X193526190Y-63766723D01*
X193526190Y-63766723D02*
X193430952Y-63766723D01*
X193478571Y-64004819D02*
X193383333Y-63957200D01*
X193383333Y-63957200D02*
X193288095Y-63861961D01*
X193288095Y-63861961D02*
X193240476Y-63671485D01*
X193240476Y-63671485D02*
X193240476Y-63338152D01*
X193240476Y-63338152D02*
X193288095Y-63147676D01*
X193288095Y-63147676D02*
X193383333Y-63052438D01*
X193383333Y-63052438D02*
X193478571Y-63004819D01*
X193478571Y-63004819D02*
X193669047Y-63004819D01*
X193669047Y-63004819D02*
X193764285Y-63052438D01*
X193764285Y-63052438D02*
X193859523Y-63147676D01*
X193859523Y-63147676D02*
X193907142Y-63338152D01*
X193907142Y-63338152D02*
X193907142Y-63671485D01*
X193907142Y-63671485D02*
X193859523Y-63861961D01*
X193859523Y-63861961D02*
X193764285Y-63957200D01*
X193764285Y-63957200D02*
X193669047Y-64004819D01*
X193669047Y-64004819D02*
X193478571Y-64004819D01*
X194859523Y-64004819D02*
X194288095Y-64004819D01*
X194573809Y-64004819D02*
X194573809Y-63004819D01*
X194573809Y-63004819D02*
X194478571Y-63147676D01*
X194478571Y-63147676D02*
X194383333Y-63242914D01*
X194383333Y-63242914D02*
X194288095Y-63290533D01*
X170833333Y-101664819D02*
X170357143Y-101664819D01*
X170357143Y-101664819D02*
X170357143Y-100664819D01*
X171119048Y-100760057D02*
X171166667Y-100712438D01*
X171166667Y-100712438D02*
X171261905Y-100664819D01*
X171261905Y-100664819D02*
X171500000Y-100664819D01*
X171500000Y-100664819D02*
X171595238Y-100712438D01*
X171595238Y-100712438D02*
X171642857Y-100760057D01*
X171642857Y-100760057D02*
X171690476Y-100855295D01*
X171690476Y-100855295D02*
X171690476Y-100950533D01*
X171690476Y-100950533D02*
X171642857Y-101093390D01*
X171642857Y-101093390D02*
X171071429Y-101664819D01*
X171071429Y-101664819D02*
X171690476Y-101664819D01*
X171833333Y-78484819D02*
X171500000Y-78008628D01*
X171261905Y-78484819D02*
X171261905Y-77484819D01*
X171261905Y-77484819D02*
X171642857Y-77484819D01*
X171642857Y-77484819D02*
X171738095Y-77532438D01*
X171738095Y-77532438D02*
X171785714Y-77580057D01*
X171785714Y-77580057D02*
X171833333Y-77675295D01*
X171833333Y-77675295D02*
X171833333Y-77818152D01*
X171833333Y-77818152D02*
X171785714Y-77913390D01*
X171785714Y-77913390D02*
X171738095Y-77961009D01*
X171738095Y-77961009D02*
X171642857Y-78008628D01*
X171642857Y-78008628D02*
X171261905Y-78008628D01*
X172214286Y-77580057D02*
X172261905Y-77532438D01*
X172261905Y-77532438D02*
X172357143Y-77484819D01*
X172357143Y-77484819D02*
X172595238Y-77484819D01*
X172595238Y-77484819D02*
X172690476Y-77532438D01*
X172690476Y-77532438D02*
X172738095Y-77580057D01*
X172738095Y-77580057D02*
X172785714Y-77675295D01*
X172785714Y-77675295D02*
X172785714Y-77770533D01*
X172785714Y-77770533D02*
X172738095Y-77913390D01*
X172738095Y-77913390D02*
X172166667Y-78484819D01*
X172166667Y-78484819D02*
X172785714Y-78484819D01*
X156761905Y-85834819D02*
X156761905Y-84834819D01*
X156761905Y-84834819D02*
X157000000Y-84834819D01*
X157000000Y-84834819D02*
X157142857Y-84882438D01*
X157142857Y-84882438D02*
X157238095Y-84977676D01*
X157238095Y-84977676D02*
X157285714Y-85072914D01*
X157285714Y-85072914D02*
X157333333Y-85263390D01*
X157333333Y-85263390D02*
X157333333Y-85406247D01*
X157333333Y-85406247D02*
X157285714Y-85596723D01*
X157285714Y-85596723D02*
X157238095Y-85691961D01*
X157238095Y-85691961D02*
X157142857Y-85787200D01*
X157142857Y-85787200D02*
X157000000Y-85834819D01*
X157000000Y-85834819D02*
X156761905Y-85834819D01*
X157666667Y-84834819D02*
X158285714Y-84834819D01*
X158285714Y-84834819D02*
X157952381Y-85215771D01*
X157952381Y-85215771D02*
X158095238Y-85215771D01*
X158095238Y-85215771D02*
X158190476Y-85263390D01*
X158190476Y-85263390D02*
X158238095Y-85311009D01*
X158238095Y-85311009D02*
X158285714Y-85406247D01*
X158285714Y-85406247D02*
X158285714Y-85644342D01*
X158285714Y-85644342D02*
X158238095Y-85739580D01*
X158238095Y-85739580D02*
X158190476Y-85787200D01*
X158190476Y-85787200D02*
X158095238Y-85834819D01*
X158095238Y-85834819D02*
X157809524Y-85834819D01*
X157809524Y-85834819D02*
X157714286Y-85787200D01*
X157714286Y-85787200D02*
X157666667Y-85739580D01*
X153428095Y-86154819D02*
X153428095Y-85154819D01*
X153999523Y-86154819D02*
X153570952Y-85583390D01*
X153999523Y-85154819D02*
X153428095Y-85726247D01*
X144166666Y-73954819D02*
X144166666Y-74669104D01*
X144166666Y-74669104D02*
X144119047Y-74811961D01*
X144119047Y-74811961D02*
X144023809Y-74907200D01*
X144023809Y-74907200D02*
X143880952Y-74954819D01*
X143880952Y-74954819D02*
X143785714Y-74954819D01*
X144547619Y-73954819D02*
X145166666Y-73954819D01*
X145166666Y-73954819D02*
X144833333Y-74335771D01*
X144833333Y-74335771D02*
X144976190Y-74335771D01*
X144976190Y-74335771D02*
X145071428Y-74383390D01*
X145071428Y-74383390D02*
X145119047Y-74431009D01*
X145119047Y-74431009D02*
X145166666Y-74526247D01*
X145166666Y-74526247D02*
X145166666Y-74764342D01*
X145166666Y-74764342D02*
X145119047Y-74859580D01*
X145119047Y-74859580D02*
X145071428Y-74907200D01*
X145071428Y-74907200D02*
X144976190Y-74954819D01*
X144976190Y-74954819D02*
X144690476Y-74954819D01*
X144690476Y-74954819D02*
X144595238Y-74907200D01*
X144595238Y-74907200D02*
X144547619Y-74859580D01*
X156761905Y-93334819D02*
X156761905Y-92334819D01*
X156761905Y-92334819D02*
X157000000Y-92334819D01*
X157000000Y-92334819D02*
X157142857Y-92382438D01*
X157142857Y-92382438D02*
X157238095Y-92477676D01*
X157238095Y-92477676D02*
X157285714Y-92572914D01*
X157285714Y-92572914D02*
X157333333Y-92763390D01*
X157333333Y-92763390D02*
X157333333Y-92906247D01*
X157333333Y-92906247D02*
X157285714Y-93096723D01*
X157285714Y-93096723D02*
X157238095Y-93191961D01*
X157238095Y-93191961D02*
X157142857Y-93287200D01*
X157142857Y-93287200D02*
X157000000Y-93334819D01*
X157000000Y-93334819D02*
X156761905Y-93334819D01*
X158190476Y-92668152D02*
X158190476Y-93334819D01*
X157952381Y-92287200D02*
X157714286Y-93001485D01*
X157714286Y-93001485D02*
X158333333Y-93001485D01*
X153428095Y-93654819D02*
X153428095Y-92654819D01*
X153999523Y-93654819D02*
X153570952Y-93083390D01*
X153999523Y-92654819D02*
X153428095Y-93226247D01*
X187709580Y-85166666D02*
X187757200Y-85214285D01*
X187757200Y-85214285D02*
X187804819Y-85357142D01*
X187804819Y-85357142D02*
X187804819Y-85452380D01*
X187804819Y-85452380D02*
X187757200Y-85595237D01*
X187757200Y-85595237D02*
X187661961Y-85690475D01*
X187661961Y-85690475D02*
X187566723Y-85738094D01*
X187566723Y-85738094D02*
X187376247Y-85785713D01*
X187376247Y-85785713D02*
X187233390Y-85785713D01*
X187233390Y-85785713D02*
X187042914Y-85738094D01*
X187042914Y-85738094D02*
X186947676Y-85690475D01*
X186947676Y-85690475D02*
X186852438Y-85595237D01*
X186852438Y-85595237D02*
X186804819Y-85452380D01*
X186804819Y-85452380D02*
X186804819Y-85357142D01*
X186804819Y-85357142D02*
X186852438Y-85214285D01*
X186852438Y-85214285D02*
X186900057Y-85166666D01*
X187804819Y-84214285D02*
X187804819Y-84785713D01*
X187804819Y-84499999D02*
X186804819Y-84499999D01*
X186804819Y-84499999D02*
X186947676Y-84595237D01*
X186947676Y-84595237D02*
X187042914Y-84690475D01*
X187042914Y-84690475D02*
X187090533Y-84785713D01*
X140716095Y-55368819D02*
X140716095Y-54368819D01*
X140716095Y-54845009D02*
X141287523Y-54845009D01*
X141287523Y-55368819D02*
X141287523Y-54368819D01*
X142287523Y-55368819D02*
X141716095Y-55368819D01*
X142001809Y-55368819D02*
X142001809Y-54368819D01*
X142001809Y-54368819D02*
X141906571Y-54511676D01*
X141906571Y-54511676D02*
X141811333Y-54606914D01*
X141811333Y-54606914D02*
X141716095Y-54654533D01*
X213055295Y-102866819D02*
X213055295Y-101866819D01*
X213055295Y-102343009D02*
X213626723Y-102343009D01*
X213626723Y-102866819D02*
X213626723Y-101866819D01*
X214531485Y-102200152D02*
X214531485Y-102866819D01*
X214293390Y-101819200D02*
X214055295Y-102533485D01*
X214055295Y-102533485D02*
X214674342Y-102533485D01*
X171833333Y-86234819D02*
X171500000Y-85758628D01*
X171261905Y-86234819D02*
X171261905Y-85234819D01*
X171261905Y-85234819D02*
X171642857Y-85234819D01*
X171642857Y-85234819D02*
X171738095Y-85282438D01*
X171738095Y-85282438D02*
X171785714Y-85330057D01*
X171785714Y-85330057D02*
X171833333Y-85425295D01*
X171833333Y-85425295D02*
X171833333Y-85568152D01*
X171833333Y-85568152D02*
X171785714Y-85663390D01*
X171785714Y-85663390D02*
X171738095Y-85711009D01*
X171738095Y-85711009D02*
X171642857Y-85758628D01*
X171642857Y-85758628D02*
X171261905Y-85758628D01*
X172166667Y-85234819D02*
X172785714Y-85234819D01*
X172785714Y-85234819D02*
X172452381Y-85615771D01*
X172452381Y-85615771D02*
X172595238Y-85615771D01*
X172595238Y-85615771D02*
X172690476Y-85663390D01*
X172690476Y-85663390D02*
X172738095Y-85711009D01*
X172738095Y-85711009D02*
X172785714Y-85806247D01*
X172785714Y-85806247D02*
X172785714Y-86044342D01*
X172785714Y-86044342D02*
X172738095Y-86139580D01*
X172738095Y-86139580D02*
X172690476Y-86187200D01*
X172690476Y-86187200D02*
X172595238Y-86234819D01*
X172595238Y-86234819D02*
X172309524Y-86234819D01*
X172309524Y-86234819D02*
X172214286Y-86187200D01*
X172214286Y-86187200D02*
X172166667Y-86139580D01*
X209166666Y-85454819D02*
X209166666Y-86169104D01*
X209166666Y-86169104D02*
X209119047Y-86311961D01*
X209119047Y-86311961D02*
X209023809Y-86407200D01*
X209023809Y-86407200D02*
X208880952Y-86454819D01*
X208880952Y-86454819D02*
X208785714Y-86454819D01*
X209595238Y-85550057D02*
X209642857Y-85502438D01*
X209642857Y-85502438D02*
X209738095Y-85454819D01*
X209738095Y-85454819D02*
X209976190Y-85454819D01*
X209976190Y-85454819D02*
X210071428Y-85502438D01*
X210071428Y-85502438D02*
X210119047Y-85550057D01*
X210119047Y-85550057D02*
X210166666Y-85645295D01*
X210166666Y-85645295D02*
X210166666Y-85740533D01*
X210166666Y-85740533D02*
X210119047Y-85883390D01*
X210119047Y-85883390D02*
X209547619Y-86454819D01*
X209547619Y-86454819D02*
X210166666Y-86454819D01*
X170333333Y-57704819D02*
X169857143Y-57704819D01*
X169857143Y-57704819D02*
X169857143Y-56704819D01*
X171190476Y-57704819D02*
X170619048Y-57704819D01*
X170904762Y-57704819D02*
X170904762Y-56704819D01*
X170904762Y-56704819D02*
X170809524Y-56847676D01*
X170809524Y-56847676D02*
X170714286Y-56942914D01*
X170714286Y-56942914D02*
X170619048Y-56990533D01*
X140716095Y-102155619D02*
X140716095Y-101155619D01*
X140716095Y-101631809D02*
X141287523Y-101631809D01*
X141287523Y-102155619D02*
X141287523Y-101155619D01*
X141668476Y-101155619D02*
X142287523Y-101155619D01*
X142287523Y-101155619D02*
X141954190Y-101536571D01*
X141954190Y-101536571D02*
X142097047Y-101536571D01*
X142097047Y-101536571D02*
X142192285Y-101584190D01*
X142192285Y-101584190D02*
X142239904Y-101631809D01*
X142239904Y-101631809D02*
X142287523Y-101727047D01*
X142287523Y-101727047D02*
X142287523Y-101965142D01*
X142287523Y-101965142D02*
X142239904Y-102060380D01*
X142239904Y-102060380D02*
X142192285Y-102108000D01*
X142192285Y-102108000D02*
X142097047Y-102155619D01*
X142097047Y-102155619D02*
X141811333Y-102155619D01*
X141811333Y-102155619D02*
X141716095Y-102108000D01*
X141716095Y-102108000D02*
X141668476Y-102060380D01*
X144166666Y-86954819D02*
X144166666Y-87669104D01*
X144166666Y-87669104D02*
X144119047Y-87811961D01*
X144119047Y-87811961D02*
X144023809Y-87907200D01*
X144023809Y-87907200D02*
X143880952Y-87954819D01*
X143880952Y-87954819D02*
X143785714Y-87954819D01*
X145166666Y-87954819D02*
X144595238Y-87954819D01*
X144880952Y-87954819D02*
X144880952Y-86954819D01*
X144880952Y-86954819D02*
X144785714Y-87097676D01*
X144785714Y-87097676D02*
X144690476Y-87192914D01*
X144690476Y-87192914D02*
X144595238Y-87240533D01*
X208666666Y-75454819D02*
X208666666Y-76169104D01*
X208666666Y-76169104D02*
X208619047Y-76311961D01*
X208619047Y-76311961D02*
X208523809Y-76407200D01*
X208523809Y-76407200D02*
X208380952Y-76454819D01*
X208380952Y-76454819D02*
X208285714Y-76454819D01*
X209571428Y-75788152D02*
X209571428Y-76454819D01*
X209333333Y-75407200D02*
X209095238Y-76121485D01*
X209095238Y-76121485D02*
X209714285Y-76121485D01*
X194954761Y-98600057D02*
X194859523Y-98552438D01*
X194859523Y-98552438D02*
X194764285Y-98457200D01*
X194764285Y-98457200D02*
X194621428Y-98314342D01*
X194621428Y-98314342D02*
X194526190Y-98266723D01*
X194526190Y-98266723D02*
X194430952Y-98266723D01*
X194478571Y-98504819D02*
X194383333Y-98457200D01*
X194383333Y-98457200D02*
X194288095Y-98361961D01*
X194288095Y-98361961D02*
X194240476Y-98171485D01*
X194240476Y-98171485D02*
X194240476Y-97838152D01*
X194240476Y-97838152D02*
X194288095Y-97647676D01*
X194288095Y-97647676D02*
X194383333Y-97552438D01*
X194383333Y-97552438D02*
X194478571Y-97504819D01*
X194478571Y-97504819D02*
X194669047Y-97504819D01*
X194669047Y-97504819D02*
X194764285Y-97552438D01*
X194764285Y-97552438D02*
X194859523Y-97647676D01*
X194859523Y-97647676D02*
X194907142Y-97838152D01*
X194907142Y-97838152D02*
X194907142Y-98171485D01*
X194907142Y-98171485D02*
X194859523Y-98361961D01*
X194859523Y-98361961D02*
X194764285Y-98457200D01*
X194764285Y-98457200D02*
X194669047Y-98504819D01*
X194669047Y-98504819D02*
X194478571Y-98504819D01*
X195288095Y-97600057D02*
X195335714Y-97552438D01*
X195335714Y-97552438D02*
X195430952Y-97504819D01*
X195430952Y-97504819D02*
X195669047Y-97504819D01*
X195669047Y-97504819D02*
X195764285Y-97552438D01*
X195764285Y-97552438D02*
X195811904Y-97600057D01*
X195811904Y-97600057D02*
X195859523Y-97695295D01*
X195859523Y-97695295D02*
X195859523Y-97790533D01*
X195859523Y-97790533D02*
X195811904Y-97933390D01*
X195811904Y-97933390D02*
X195240476Y-98504819D01*
X195240476Y-98504819D02*
X195859523Y-98504819D01*
D11*
%TO.C,R4*%
X166690000Y-93250000D02*
X167380000Y-93250000D01*
X167380000Y-91530000D02*
X167380000Y-94970000D01*
X167380000Y-94970000D02*
X176620000Y-94970000D01*
X176620000Y-91530000D02*
X167380000Y-91530000D01*
X176620000Y-94970000D02*
X176620000Y-91530000D01*
X177310000Y-93250000D02*
X176620000Y-93250000D01*
%TO.C,D2*%
X154230000Y-81500000D02*
X154880000Y-81500000D01*
X154880000Y-80380000D02*
X154880000Y-82620000D01*
X154880000Y-82620000D02*
X159120000Y-82620000D01*
X155480000Y-80380000D02*
X155480000Y-82620000D01*
X155600000Y-80380000D02*
X155600000Y-82620000D01*
X155720000Y-80380000D02*
X155720000Y-82620000D01*
X159120000Y-80380000D02*
X154880000Y-80380000D01*
X159120000Y-82620000D02*
X159120000Y-80380000D01*
X159770000Y-81500000D02*
X159120000Y-81500000D01*
%TO.C,D1*%
X154730000Y-75000000D02*
X155380000Y-75000000D01*
X155380000Y-73880000D02*
X155380000Y-76120000D01*
X155380000Y-76120000D02*
X159620000Y-76120000D01*
X155980000Y-73880000D02*
X155980000Y-76120000D01*
X156100000Y-73880000D02*
X156100000Y-76120000D01*
X156220000Y-73880000D02*
X156220000Y-76120000D01*
X159620000Y-73880000D02*
X155380000Y-73880000D01*
X159620000Y-76120000D02*
X159620000Y-73880000D01*
X160270000Y-75000000D02*
X159620000Y-75000000D01*
%TO.C,R1*%
X166690000Y-76000000D02*
X167380000Y-76000000D01*
X167380000Y-74280000D02*
X167380000Y-77720000D01*
X167380000Y-77720000D02*
X176620000Y-77720000D01*
X176620000Y-74280000D02*
X167380000Y-74280000D01*
X176620000Y-77720000D02*
X176620000Y-74280000D01*
X177310000Y-76000000D02*
X176620000Y-76000000D01*
%TO.C,Q1*%
X185980000Y-64549000D02*
X185980000Y-69820000D01*
X185980000Y-64549000D02*
X202120000Y-64549000D01*
X185980000Y-69820000D02*
X202120000Y-69820000D01*
X192246000Y-64549000D02*
X192246000Y-69820000D01*
X195855000Y-64549000D02*
X195855000Y-69820000D01*
X202120000Y-64549000D02*
X202120000Y-69820000D01*
%TO.C,L2*%
X165880000Y-103380000D02*
X165880000Y-108620000D01*
X165880000Y-103380000D02*
X169745000Y-103380000D01*
X165880000Y-108620000D02*
X169745000Y-108620000D01*
X172255000Y-103380000D02*
X176120000Y-103380000D01*
X172255000Y-108620000D02*
X176120000Y-108620000D01*
X176120000Y-103380000D02*
X176120000Y-108620000D01*
%TO.C,R2*%
X166690000Y-80750000D02*
X167380000Y-80750000D01*
X167380000Y-79030000D02*
X167380000Y-82470000D01*
X167380000Y-82470000D02*
X176620000Y-82470000D01*
X176620000Y-79030000D02*
X167380000Y-79030000D01*
X176620000Y-82470000D02*
X176620000Y-79030000D01*
X177310000Y-80750000D02*
X176620000Y-80750000D01*
%TO.C,D3*%
X154730000Y-87500000D02*
X155380000Y-87500000D01*
X155380000Y-86380000D02*
X155380000Y-88620000D01*
X155380000Y-88620000D02*
X159620000Y-88620000D01*
X155980000Y-86380000D02*
X155980000Y-88620000D01*
X156100000Y-86380000D02*
X156100000Y-88620000D01*
X156220000Y-86380000D02*
X156220000Y-88620000D01*
X159620000Y-86380000D02*
X155380000Y-86380000D01*
X159620000Y-88620000D02*
X159620000Y-86380000D01*
X160270000Y-87500000D02*
X159620000Y-87500000D01*
%TO.C,D4*%
X154730000Y-95000000D02*
X155380000Y-95000000D01*
X155380000Y-93880000D02*
X155380000Y-96120000D01*
X155380000Y-96120000D02*
X159620000Y-96120000D01*
X155980000Y-93880000D02*
X155980000Y-96120000D01*
X156100000Y-93880000D02*
X156100000Y-96120000D01*
X156220000Y-93880000D02*
X156220000Y-96120000D01*
X159620000Y-93880000D02*
X155380000Y-93880000D01*
X159620000Y-96120000D02*
X159620000Y-93880000D01*
X160270000Y-95000000D02*
X159620000Y-95000000D01*
%TO.C,C1*%
X188480000Y-79380000D02*
X189075000Y-79380000D01*
X188480000Y-90620000D02*
X188480000Y-79380000D01*
X188480000Y-90620000D02*
X189075000Y-90620000D01*
X190925000Y-79380000D02*
X191520000Y-79380000D01*
X190925000Y-90620000D02*
X191520000Y-90620000D01*
X191520000Y-90620000D02*
X191520000Y-79380000D01*
%TO.C,R3*%
X166690000Y-88500000D02*
X167380000Y-88500000D01*
X167380000Y-86780000D02*
X167380000Y-90220000D01*
X167380000Y-90220000D02*
X176620000Y-90220000D01*
X176620000Y-86780000D02*
X167380000Y-86780000D01*
X176620000Y-90220000D02*
X176620000Y-86780000D01*
X177310000Y-88500000D02*
X176620000Y-88500000D01*
%TO.C,L1*%
X165380000Y-59420000D02*
X165380000Y-64660000D01*
X165380000Y-59420000D02*
X169245000Y-59420000D01*
X165380000Y-64660000D02*
X169245000Y-64660000D01*
X171755000Y-59420000D02*
X175620000Y-59420000D01*
X171755000Y-64660000D02*
X175620000Y-64660000D01*
X175620000Y-59420000D02*
X175620000Y-64660000D01*
%TO.C,Q2*%
X186980000Y-99049000D02*
X186980000Y-104320000D01*
X186980000Y-99049000D02*
X203120000Y-99049000D01*
X186980000Y-104320000D02*
X203120000Y-104320000D01*
X193246000Y-99049000D02*
X193246000Y-104320000D01*
X196855000Y-99049000D02*
X196855000Y-104320000D01*
X203120000Y-99049000D02*
X203120000Y-104320000D01*
%TD*%
M02*
